# xmcd CD database file
#
# Track frame offsets:
#	150
#	20457
#	42207
#	61592
#
# Disc length: 1247 seconds
#
# Revision: 0
# Processed by: cddbd v1.4PL0 Copyright (c) Steve Scherf et al.
# Submitted via: CDex 1.40Beta9
#
DISCID=2504dd04
DTITLE=Dave Matthews Band - Ants Marching
DYEAR=1900
DGENRE=Blues
TTITLE0=Ants Marching
TTITLE1=Ants Marching (Live Version)
TTITLE2=Ants Marching (Live Acoustic Version)
TTITLE3=All Along the Watchtower
EXTD=ID3G: 0
EXTT0=
EXTT1=
EXTT2=
EXTT3=
PLAYORDER=
